<mxfile host="www.draw.io" modified="2020-02-10T09:06:51.425Z" agent="Mozilla/5.0 (Macintosh; Intel Mac OS X 10_15_1) AppleWebKit/605.1.15 (KHTML, like Gecko) Version/13.0.3 Safari/605.1.15" etag="FgpMWCPgvQ0RwUYTA3fE" version="12.6.6" type="github">
  <diagram id="C5RBs43oDa-KdzZeNtuy" name="Page-1">
    <mxGraphModel dx="1395" dy="779" grid="1" gridSize="10" guides="1" tooltips="1" connect="1" arrows="1" fold="1" page="1" pageScale="1" pageWidth="827" pageHeight="1169" math="0" shadow="0">
      <root>
        <mxCell id="WIyWlLk6GJQsqaUBKTNV-0"/>
        <mxCell id="WIyWlLk6GJQsqaUBKTNV-1" parent="WIyWlLk6GJQsqaUBKTNV-0"/>
        <mxCell id="5cKeduFpD69OzBUjxAE2-6" style="edgeStyle=orthogonalEdgeStyle;rounded=0;orthogonalLoop=1;jettySize=auto;html=1;exitX=0.5;exitY=0;exitDx=0;exitDy=0;entryX=-0.006;entryY=0.624;entryDx=0;entryDy=0;entryPerimeter=0;" edge="1" parent="WIyWlLk6GJQsqaUBKTNV-1" source="zkfFHV4jXpPFQw0GAbJ--0" target="vueVsAEjh_niGs77pXd6-32">
          <mxGeometry relative="1" as="geometry"/>
        </mxCell>
        <mxCell id="5cKeduFpD69OzBUjxAE2-12" style="edgeStyle=orthogonalEdgeStyle;rounded=0;orthogonalLoop=1;jettySize=auto;html=1;entryX=0.002;entryY=0.721;entryDx=0;entryDy=0;entryPerimeter=0;exitX=0.5;exitY=1;exitDx=0;exitDy=0;" edge="1" parent="WIyWlLk6GJQsqaUBKTNV-1" source="zkfFHV4jXpPFQw0GAbJ--0" target="vueVsAEjh_niGs77pXd6-55">
          <mxGeometry relative="1" as="geometry">
            <mxPoint x="200" y="710" as="targetPoint"/>
          </mxGeometry>
        </mxCell>
        <mxCell id="5cKeduFpD69OzBUjxAE2-13" style="edgeStyle=orthogonalEdgeStyle;rounded=0;orthogonalLoop=1;jettySize=auto;html=1;entryX=0;entryY=0.5;entryDx=0;entryDy=0;" edge="1" parent="WIyWlLk6GJQsqaUBKTNV-1" source="zkfFHV4jXpPFQw0GAbJ--0" target="vueVsAEjh_niGs77pXd6-6">
          <mxGeometry relative="1" as="geometry"/>
        </mxCell>
        <mxCell id="zkfFHV4jXpPFQw0GAbJ--0" value="ホーム画面" style="swimlane;fontStyle=2;align=center;verticalAlign=top;childLayout=stackLayout;horizontal=1;startSize=28;horizontalStack=0;resizeParent=1;resizeLast=0;collapsible=1;marginBottom=0;rounded=0;shadow=0;strokeWidth=1;" parent="WIyWlLk6GJQsqaUBKTNV-1" vertex="1">
          <mxGeometry x="120" y="330" width="160" height="180" as="geometry">
            <mxRectangle x="230" y="140" width="160" height="26" as="alternateBounds"/>
          </mxGeometry>
        </mxCell>
        <mxCell id="vueVsAEjh_niGs77pXd6-21" value="- 授業名" style="text;html=1;align=center;verticalAlign=middle;resizable=0;points=[];autosize=1;" parent="zkfFHV4jXpPFQw0GAbJ--0" vertex="1">
          <mxGeometry y="28" width="160" height="20" as="geometry"/>
        </mxCell>
        <mxCell id="vueVsAEjh_niGs77pXd6-20" value="- 科目一覧" style="text;html=1;align=center;verticalAlign=middle;resizable=0;points=[];autosize=1;" parent="zkfFHV4jXpPFQw0GAbJ--0" vertex="1">
          <mxGeometry y="48" width="160" height="20" as="geometry"/>
        </mxCell>
        <mxCell id="vueVsAEjh_niGs77pXd6-27" value="&amp;nbsp;- ユーザー" style="text;html=1;align=center;verticalAlign=middle;resizable=0;points=[];autosize=1;" parent="zkfFHV4jXpPFQw0GAbJ--0" vertex="1">
          <mxGeometry y="68" width="160" height="20" as="geometry"/>
        </mxCell>
        <mxCell id="zkfFHV4jXpPFQw0GAbJ--4" value="" style="line;html=1;strokeWidth=1;align=left;verticalAlign=middle;spacingTop=-1;spacingLeft=3;spacingRight=3;rotatable=0;labelPosition=right;points=[];portConstraint=eastwest;" parent="zkfFHV4jXpPFQw0GAbJ--0" vertex="1">
          <mxGeometry y="88" width="160" height="12" as="geometry"/>
        </mxCell>
        <mxCell id="vueVsAEjh_niGs77pXd6-22" value="+ 授業を選択" style="text;html=1;align=center;verticalAlign=middle;resizable=0;points=[];autosize=1;" parent="zkfFHV4jXpPFQw0GAbJ--0" vertex="1">
          <mxGeometry y="100" width="160" height="20" as="geometry"/>
        </mxCell>
        <mxCell id="vueVsAEjh_niGs77pXd6-23" value="+ ユーザー情報表示" style="text;html=1;align=center;verticalAlign=middle;resizable=0;points=[];autosize=1;" parent="zkfFHV4jXpPFQw0GAbJ--0" vertex="1">
          <mxGeometry y="120" width="160" height="20" as="geometry"/>
        </mxCell>
        <mxCell id="vueVsAEjh_niGs77pXd6-26" value="&amp;nbsp;+ 科目リスト表示" style="text;html=1;align=center;verticalAlign=middle;resizable=0;points=[];autosize=1;" parent="zkfFHV4jXpPFQw0GAbJ--0" vertex="1">
          <mxGeometry y="140" width="160" height="20" as="geometry"/>
        </mxCell>
        <mxCell id="vueVsAEjh_niGs77pXd6-5" value="&lt;br&gt;&lt;br&gt;" style="text;html=1;align=center;verticalAlign=middle;resizable=0;points=[];autosize=1;" parent="WIyWlLk6GJQsqaUBKTNV-1" vertex="1">
          <mxGeometry x="254" y="161" width="20" height="30" as="geometry"/>
        </mxCell>
        <mxCell id="5cKeduFpD69OzBUjxAE2-14" style="edgeStyle=orthogonalEdgeStyle;rounded=0;orthogonalLoop=1;jettySize=auto;html=1;entryX=0.5;entryY=0;entryDx=0;entryDy=0;" edge="1" parent="WIyWlLk6GJQsqaUBKTNV-1" source="vueVsAEjh_niGs77pXd6-6" target="vueVsAEjh_niGs77pXd6-10">
          <mxGeometry relative="1" as="geometry"/>
        </mxCell>
        <mxCell id="vueVsAEjh_niGs77pXd6-6" value="取得単位リスト" style="swimlane;fontStyle=2;align=center;verticalAlign=top;childLayout=stackLayout;horizontal=1;startSize=26;horizontalStack=0;resizeParent=1;resizeLast=0;collapsible=1;marginBottom=0;rounded=0;shadow=0;strokeWidth=1;" parent="WIyWlLk6GJQsqaUBKTNV-1" vertex="1">
          <mxGeometry x="360" y="350" width="160" height="140" as="geometry">
            <mxRectangle x="230" y="140" width="160" height="26" as="alternateBounds"/>
          </mxGeometry>
        </mxCell>
        <mxCell id="vueVsAEjh_niGs77pXd6-60" value="- 選択単位" style="text;html=1;align=center;verticalAlign=middle;resizable=0;points=[];autosize=1;" parent="vueVsAEjh_niGs77pXd6-6" vertex="1">
          <mxGeometry y="26" width="160" height="20" as="geometry"/>
        </mxCell>
        <mxCell id="vueVsAEjh_niGs77pXd6-61" value="- 取得済み判定" style="text;html=1;align=center;verticalAlign=middle;resizable=0;points=[];autosize=1;" parent="vueVsAEjh_niGs77pXd6-6" vertex="1">
          <mxGeometry y="46" width="160" height="20" as="geometry"/>
        </mxCell>
        <mxCell id="vueVsAEjh_niGs77pXd6-7" value="" style="line;html=1;strokeWidth=1;align=left;verticalAlign=middle;spacingTop=-1;spacingLeft=3;spacingRight=3;rotatable=0;labelPosition=right;points=[];portConstraint=eastwest;" parent="vueVsAEjh_niGs77pXd6-6" vertex="1">
          <mxGeometry y="66" width="160" height="14" as="geometry"/>
        </mxCell>
        <mxCell id="vueVsAEjh_niGs77pXd6-62" value="+ 授業詳細画面遷移" style="text;html=1;align=center;verticalAlign=middle;resizable=0;points=[];autosize=1;" parent="vueVsAEjh_niGs77pXd6-6" vertex="1">
          <mxGeometry y="80" width="160" height="20" as="geometry"/>
        </mxCell>
        <mxCell id="vueVsAEjh_niGs77pXd6-63" value="+ ホーム画面に戻る" style="text;html=1;align=center;verticalAlign=middle;resizable=0;points=[];autosize=1;" parent="vueVsAEjh_niGs77pXd6-6" vertex="1">
          <mxGeometry y="100" width="160" height="20" as="geometry"/>
        </mxCell>
        <mxCell id="vueVsAEjh_niGs77pXd6-64" value="+ 絞り込み判定の反映" style="text;html=1;align=center;verticalAlign=middle;resizable=0;points=[];autosize=1;" parent="vueVsAEjh_niGs77pXd6-6" vertex="1">
          <mxGeometry y="120" width="160" height="20" as="geometry"/>
        </mxCell>
        <mxCell id="vueVsAEjh_niGs77pXd6-8" value="ユーザー情報設定" style="swimlane;fontStyle=2;align=center;verticalAlign=top;childLayout=stackLayout;horizontal=1;startSize=26;horizontalStack=0;resizeParent=1;resizeLast=0;collapsible=1;marginBottom=0;rounded=0;shadow=0;strokeWidth=1;" parent="WIyWlLk6GJQsqaUBKTNV-1" vertex="1">
          <mxGeometry x="600" y="90" width="160" height="190" as="geometry">
            <mxRectangle x="230" y="140" width="160" height="26" as="alternateBounds"/>
          </mxGeometry>
        </mxCell>
        <mxCell id="vueVsAEjh_niGs77pXd6-40" value="- 名前設定" style="text;html=1;align=center;verticalAlign=middle;resizable=0;points=[];autosize=1;" parent="vueVsAEjh_niGs77pXd6-8" vertex="1">
          <mxGeometry y="26" width="160" height="20" as="geometry"/>
        </mxCell>
        <mxCell id="vueVsAEjh_niGs77pXd6-42" value="- 学部設定" style="text;html=1;align=center;verticalAlign=middle;resizable=0;points=[];autosize=1;" parent="vueVsAEjh_niGs77pXd6-8" vertex="1">
          <mxGeometry y="46" width="160" height="20" as="geometry"/>
        </mxCell>
        <mxCell id="vueVsAEjh_niGs77pXd6-43" value="- 学科設定" style="text;html=1;align=center;verticalAlign=middle;resizable=0;points=[];autosize=1;" parent="vueVsAEjh_niGs77pXd6-8" vertex="1">
          <mxGeometry y="66" width="160" height="20" as="geometry"/>
        </mxCell>
        <mxCell id="vueVsAEjh_niGs77pXd6-44" value="- 所属設定" style="text;html=1;align=center;verticalAlign=middle;resizable=0;points=[];autosize=1;" parent="vueVsAEjh_niGs77pXd6-8" vertex="1">
          <mxGeometry y="86" width="160" height="20" as="geometry"/>
        </mxCell>
        <mxCell id="vueVsAEjh_niGs77pXd6-46" value="- 年次設定" style="text;html=1;align=center;verticalAlign=middle;resizable=0;points=[];autosize=1;" parent="vueVsAEjh_niGs77pXd6-8" vertex="1">
          <mxGeometry y="106" width="160" height="20" as="geometry"/>
        </mxCell>
        <mxCell id="vueVsAEjh_niGs77pXd6-9" value="" style="line;html=1;strokeWidth=1;align=left;verticalAlign=middle;spacingTop=-1;spacingLeft=3;spacingRight=3;rotatable=0;labelPosition=right;points=[];portConstraint=eastwest;" parent="vueVsAEjh_niGs77pXd6-8" vertex="1">
          <mxGeometry y="126" width="160" height="4" as="geometry"/>
        </mxCell>
        <mxCell id="vueVsAEjh_niGs77pXd6-47" value="+ ユーザー情報変更の反映" style="text;html=1;align=center;verticalAlign=middle;resizable=0;points=[];autosize=1;" parent="vueVsAEjh_niGs77pXd6-8" vertex="1">
          <mxGeometry y="130" width="160" height="20" as="geometry"/>
        </mxCell>
        <mxCell id="vueVsAEjh_niGs77pXd6-48" value="+ ユーザー情報に戻る" style="text;html=1;align=center;verticalAlign=middle;resizable=0;points=[];autosize=1;" parent="vueVsAEjh_niGs77pXd6-8" vertex="1">
          <mxGeometry y="150" width="160" height="20" as="geometry"/>
        </mxCell>
        <mxCell id="vueVsAEjh_niGs77pXd6-49" value="+ ホーム画面に戻る" style="text;html=1;align=center;verticalAlign=middle;resizable=0;points=[];autosize=1;" parent="vueVsAEjh_niGs77pXd6-8" vertex="1">
          <mxGeometry y="170" width="160" height="20" as="geometry"/>
        </mxCell>
        <mxCell id="vueVsAEjh_niGs77pXd6-10" value="授業詳細画面" style="swimlane;fontStyle=2;align=center;verticalAlign=top;childLayout=stackLayout;horizontal=1;startSize=26;horizontalStack=0;resizeParent=1;resizeLast=0;collapsible=1;marginBottom=0;rounded=0;shadow=0;strokeWidth=1;" parent="WIyWlLk6GJQsqaUBKTNV-1" vertex="1">
          <mxGeometry x="360" y="570" width="160" height="180" as="geometry">
            <mxRectangle x="230" y="140" width="160" height="26" as="alternateBounds"/>
          </mxGeometry>
        </mxCell>
        <mxCell id="vueVsAEjh_niGs77pXd6-50" value="- 授業名" style="text;html=1;align=center;verticalAlign=middle;resizable=0;points=[];autosize=1;" parent="vueVsAEjh_niGs77pXd6-10" vertex="1">
          <mxGeometry y="26" width="160" height="20" as="geometry"/>
        </mxCell>
        <mxCell id="vueVsAEjh_niGs77pXd6-51" value="- 単位数" style="text;html=1;align=center;verticalAlign=middle;resizable=0;points=[];autosize=1;" parent="vueVsAEjh_niGs77pXd6-10" vertex="1">
          <mxGeometry y="46" width="160" height="20" as="geometry"/>
        </mxCell>
        <mxCell id="vueVsAEjh_niGs77pXd6-52" value="- 分野" style="text;html=1;align=center;verticalAlign=middle;resizable=0;points=[];autosize=1;" parent="vueVsAEjh_niGs77pXd6-10" vertex="1">
          <mxGeometry y="66" width="160" height="20" as="geometry"/>
        </mxCell>
        <mxCell id="vueVsAEjh_niGs77pXd6-55" value="- 取得単位判定" style="text;html=1;align=center;verticalAlign=middle;resizable=0;points=[];autosize=1;" parent="vueVsAEjh_niGs77pXd6-10" vertex="1">
          <mxGeometry y="86" width="160" height="20" as="geometry"/>
        </mxCell>
        <mxCell id="vueVsAEjh_niGs77pXd6-11" value="" style="line;html=1;strokeWidth=1;align=left;verticalAlign=middle;spacingTop=-1;spacingLeft=3;spacingRight=3;rotatable=0;labelPosition=right;points=[];portConstraint=eastwest;" parent="vueVsAEjh_niGs77pXd6-10" vertex="1">
          <mxGeometry y="106" width="160" height="4" as="geometry"/>
        </mxCell>
        <mxCell id="vueVsAEjh_niGs77pXd6-57" value="+ ホーム画面に戻る" style="text;html=1;align=center;verticalAlign=middle;resizable=0;points=[];autosize=1;" parent="vueVsAEjh_niGs77pXd6-10" vertex="1">
          <mxGeometry y="110" width="160" height="20" as="geometry"/>
        </mxCell>
        <mxCell id="vueVsAEjh_niGs77pXd6-58" value="+ 単位取得判定の変更" style="text;html=1;align=center;verticalAlign=middle;resizable=0;points=[];autosize=1;" parent="vueVsAEjh_niGs77pXd6-10" vertex="1">
          <mxGeometry y="130" width="160" height="20" as="geometry"/>
        </mxCell>
        <mxCell id="vueVsAEjh_niGs77pXd6-59" value="+ 取得単位リストに戻る" style="text;html=1;align=center;verticalAlign=middle;resizable=0;points=[];autosize=1;" parent="vueVsAEjh_niGs77pXd6-10" vertex="1">
          <mxGeometry y="150" width="160" height="20" as="geometry"/>
        </mxCell>
        <mxCell id="5cKeduFpD69OzBUjxAE2-15" style="edgeStyle=orthogonalEdgeStyle;rounded=0;orthogonalLoop=1;jettySize=auto;html=1;entryX=0;entryY=0.45;entryDx=0;entryDy=0;entryPerimeter=0;" edge="1" parent="WIyWlLk6GJQsqaUBKTNV-1" source="vueVsAEjh_niGs77pXd6-12" target="vueVsAEjh_niGs77pXd6-44">
          <mxGeometry relative="1" as="geometry"/>
        </mxCell>
        <mxCell id="vueVsAEjh_niGs77pXd6-12" value="ユーザー情報" style="swimlane;fontStyle=2;align=center;verticalAlign=top;childLayout=stackLayout;horizontal=1;startSize=25;horizontalStack=0;resizeParent=1;resizeLast=0;collapsible=1;marginBottom=0;rounded=0;shadow=0;strokeWidth=1;" parent="WIyWlLk6GJQsqaUBKTNV-1" vertex="1">
          <mxGeometry x="360" y="100" width="160" height="170" as="geometry">
            <mxRectangle x="230" y="140" width="160" height="26" as="alternateBounds"/>
          </mxGeometry>
        </mxCell>
        <mxCell id="vueVsAEjh_niGs77pXd6-28" value="- 名前" style="text;html=1;align=center;verticalAlign=middle;resizable=0;points=[];autosize=1;" parent="vueVsAEjh_niGs77pXd6-12" vertex="1">
          <mxGeometry y="25" width="160" height="20" as="geometry"/>
        </mxCell>
        <mxCell id="vueVsAEjh_niGs77pXd6-29" value="- 学部" style="text;html=1;align=center;verticalAlign=middle;resizable=0;points=[];autosize=1;" parent="vueVsAEjh_niGs77pXd6-12" vertex="1">
          <mxGeometry y="45" width="160" height="20" as="geometry"/>
        </mxCell>
        <mxCell id="vueVsAEjh_niGs77pXd6-32" value="- 学科" style="text;html=1;align=center;verticalAlign=middle;resizable=0;points=[];autosize=1;" parent="vueVsAEjh_niGs77pXd6-12" vertex="1">
          <mxGeometry y="65" width="160" height="20" as="geometry"/>
        </mxCell>
        <mxCell id="vueVsAEjh_niGs77pXd6-33" value="- 所属" style="text;html=1;align=center;verticalAlign=middle;resizable=0;points=[];autosize=1;" parent="vueVsAEjh_niGs77pXd6-12" vertex="1">
          <mxGeometry y="85" width="160" height="20" as="geometry"/>
        </mxCell>
        <mxCell id="vueVsAEjh_niGs77pXd6-45" value="- 年次" style="text;html=1;align=center;verticalAlign=middle;resizable=0;points=[];autosize=1;" parent="vueVsAEjh_niGs77pXd6-12" vertex="1">
          <mxGeometry y="105" width="160" height="20" as="geometry"/>
        </mxCell>
        <mxCell id="vueVsAEjh_niGs77pXd6-13" value="" style="line;html=1;strokeWidth=1;align=left;verticalAlign=middle;spacingTop=-1;spacingLeft=3;spacingRight=3;rotatable=0;labelPosition=right;points=[];portConstraint=eastwest;" parent="vueVsAEjh_niGs77pXd6-12" vertex="1">
          <mxGeometry y="125" width="160" height="5" as="geometry"/>
        </mxCell>
        <mxCell id="vueVsAEjh_niGs77pXd6-34" value="&amp;nbsp;+ ユーザー設定画面遷移" style="text;html=1;align=center;verticalAlign=middle;resizable=0;points=[];autosize=1;" parent="vueVsAEjh_niGs77pXd6-12" vertex="1">
          <mxGeometry y="130" width="160" height="20" as="geometry"/>
        </mxCell>
        <mxCell id="vueVsAEjh_niGs77pXd6-35" value="+ ホーム画面に戻る" style="text;html=1;align=center;verticalAlign=middle;resizable=0;points=[];autosize=1;" parent="vueVsAEjh_niGs77pXd6-12" vertex="1">
          <mxGeometry y="150" width="160" height="20" as="geometry"/>
        </mxCell>
      </root>
    </mxGraphModel>
  </diagram>
</mxfile>
